<svg xmlns="http://www.w3.org/2000/svg" viewBox="0 0 90 90"><title>iphone-apps</title><g id="iphone-apps-flat"><circle id="label" cx="45" cy="45" r="45" fill="#fc6e51"/><g id="shadow"><path d="M89.34,50.15,89.16,50,89,49.79l-.18-.18-.18-.18-.18-.18-.18-.18-.18-.18-.18-.18-.18-.18-.18-.18-.18-.18L87.19,48,87,47.82l-.18-.18-.18-.18-.18-.18-.18-.18-.18-.18-.18-.18-.18-.18-.18-.18-.18-.18L85.21,46,85,45.85l-.18-.18-.18-.18-.18-.18-.18-.18L84.14,45,84,44.77l-.18-.18-.18-.18-.18-.18-.18-.18-.18-.18-.18-.18-.18-.18-.18-.18-.18-.18L82.17,43,82,42.8l-.18-.18-.18-.18-.18-.18-.18-.18-.18-.18-.18-.18-.18-.18-.18-.18-.18-.18L80.19,41,80,40.83l-.18-.18-.18-.18-.18-.18-.18-.18-.18-.18-.18-.18-.18-.18-.18-.18-.18-.18L78.22,39,78,38.86l-.18-.18-.18-.18-.18-.18-.18-.18L77.15,38,77,37.78l-.18-.18-.18-.18-.18-.18-.18-.18-.18-.18-.18-.18-.18-.18-.18-.18-.18-.18L75.17,36,75,35.81l-.18-.18-.18-.18-.18-.18-.18-.18-.18-.18-.18-.18-.18-.18-.18-.18-.18-.18L73.2,34,73,33.84l-.18-.18-.18-.18-.18-.18-.18-.18-.18-.18-.18-.18-.18-.18-.18-.18-.18-.18L71.23,32,71,31.87l-.18-.18-.18-.18-.18-.18-.18-.18L70.15,31,70,30.79l-.18-.18-.18-.18-.18-.18-.18-.18-.18-.18-.18-.18-.18-.18-.18-.18-.18-.18L68.18,29,68,28.82l-.18-.18-.18-.18-.18-.18-.18-.18-.18-.18-.18-.18-.18-.18-.18-.18-.18-.18L66.21,27,66,26.85l-.18-.18-.18-.18-.18-.18-.18-.18-.18-.18L65,25.77l-.18-.18-.18-.18-.18-.18-.18-.18-.18-.18-.18-.18-.18-.18-.18-.18-.18-.18L63.16,24,63,23.8l-.18-.18-.18-.18-.18-.18-.18-.18-.18-.18-.18-.18-.18-.18-.18-.18-.18-.18L61.19,22,61,21.83l-.18-.18-.18-.18-.18-.18-.18-.18-.18-.18-.18-.18-.18-.18-.18-.18-.18-.18L59.22,20,59,19.85a4.26,4.26,0,0,0-3.11-1.35H34.07a4.29,4.29,0,0,0-4.29,4.29V67.21a4.27,4.27,0,0,0,1.35,3.11l.18.18.18.18.18.18.18.18.18.18.18.18.18.18.18.18.18.18.18.18.18.18.18.18.18.18.18.18.18.18.18.18.18.18.18.18.18.18.18.18.18.18.18.18.18.18.18.18.18.18.18.18.18.18.18.18.18.18.18.18.18.18.18.18.18.18.18.18.18.18.18.18.18.18.18.18.18.18.18.18.18.18.18.18.18.18.18.18.18.18.18.18.18.18.18.18.18.18.18.18.18.18.18.18.18.18.18.18.18.18.18.18.18.18.18.18.18.18.18.18.18.18.18.18.18.18.18.18.18.18.18.18.18.18.18.18.18.18.18.18.18.18.18.18.18.18.18.18.18.18.18.18.18.18.18.18.18.18.18.18.18.18.18.18.18.18.18.18.18.18.18.18.18.18.18.18.18.18.18.18.18.18.18.18.18.18.18.18.18.18.18.18.18.18.18.18.18.18.18.18.18.18.18.18.18.18.18.18.18.18.18.18.18.18.15.15A45,45,0,0,0,89.66,50.47l-.14-.14Z" fill="#e6633a"/></g><g id="iphone-apps"><path d="M55.92,71.5H34.07a4.29,4.29,0,0,1-4.29-4.29V22.79a4.29,4.29,0,0,1,4.29-4.29H55.92a4.29,4.29,0,0,1,4.29,4.29V67.21a4.29,4.29,0,0,1-4.29,4.29" fill="#fff"/><rect x="32.73" y="25.37" width="24.54" height="37.3" fill="#434a54"/><path d="M46.47,23.41H43.53a1,1,0,1,1,0-2h2.95a1,1,0,0,1,0,2" fill="#e0e0e0"/><path d="M39.08,23.41a1,1,0,0,1-1-1,1,1,0,0,1,.28-.7,1,1,0,1,1,.7,1.68" fill="#e0e0e0"/><path d="M47.45,67.08A2.45,2.45,0,1,1,45,64.63a2.45,2.45,0,0,1,2.45,2.45" fill="#e0e0e0"/><path d="M46.62,36.73H43.37a.86.86,0,0,1-.86-.86V32.62a.86.86,0,0,1,.86-.86h3.25a.86.86,0,0,1,.86.86v3.25a.86.86,0,0,1-.86.86" fill="#acaf48"/><path d="M39.17,36.73H35.92a.86.86,0,0,1-.86-.86V32.62a.86.86,0,0,1,.86-.86h3.25a.86.86,0,0,1,.86.86v3.25a.86.86,0,0,1-.86.86" fill="#fc6e51"/><path d="M54.08,36.73H50.83a.86.86,0,0,1-.86-.86V32.62a.86.86,0,0,1,.86-.86h3.25a.86.86,0,0,1,.86.86v3.25a.86.86,0,0,1-.86.86" fill="#ffca28"/><path d="M46.62,44.16H43.37a.86.86,0,0,1-.86-.86V40.06a.86.86,0,0,1,.86-.86h3.25a.86.86,0,0,1,.86.86V43.3a.86.86,0,0,1-.86.86" fill="#ffca28"/><path d="M39.17,44.16H35.92a.86.86,0,0,1-.86-.86V40.06a.86.86,0,0,1,.86-.86h3.25a.86.86,0,0,1,.86.86V43.3a.86.86,0,0,1-.86.86" fill="#3bafda"/><path d="M54.08,44.16H50.83A.86.86,0,0,1,50,43.3V40.06a.86.86,0,0,1,.86-.86h3.25a.86.86,0,0,1,.86.86V43.3a.86.86,0,0,1-.86.86" fill="#fc6e51"/><path d="M46.62,51.62H43.37a.86.86,0,0,1-.86-.86V47.51a.86.86,0,0,1,.86-.86h3.25a.86.86,0,0,1,.86.86v3.25a.86.86,0,0,1-.86.86" fill="#3bafda"/><path d="M39.17,51.62H35.92a.86.86,0,0,1-.86-.86V47.51a.86.86,0,0,1,.86-.86h3.25a.86.86,0,0,1,.86.86v3.25a.86.86,0,0,1-.86.86" fill="#acaf48"/><path d="M54.08,51.62H50.83a.86.86,0,0,1-.86-.86V47.51a.86.86,0,0,1,.86-.86h3.25a.86.86,0,0,1,.86.86v3.25a.86.86,0,0,1-.86.86" fill="#bdbdbd"/></g></g></svg>